PathFileType	4	(X/Y/Z)	C:/Users/opensim2020/Desktop/walking_exp_matlab/subject06_walking16_straight_03.trc	
DataRate	CameraRate	NumFrames	NumMarkers	Units	OrigDataRate	OrigDataStartFrame	OrigNumFrames	
100.00	100.00	6	51	mm	100.00	2999	283	
Frame#	Time	LFHD			RFHD			LBHD			RBHD			C7			T10			CLAV			STRN			RBAK			LSHO			LUPA			LELB			LFRM			LWRA			LWRB			LFIN			RSHO			RUPA			RELB			RFRM			RWRA			RWRB			RFIN			LASI			RASI			LPSI			RPSI			LTHI			LKNE			LTIB			LANK			LHEE			LTOE			RTHI			RKNE			RTIB			RANK			RHEE			RTOE			*39			*40			*41			*42			*43			*44			*45			*46			*47			*48			*49			*50			
		X1	Y1	Z1	X2	Y2	Z2	X3	Y3	Z3	X4	Y4	Z4	X5	Y5	Z5	X6	Y6	Z6	X7	Y7	Z7	X8	Y8	Z8	X9	Y9	Z9	X10	Y10	Z10	X11	Y11	Z11	X12	Y12	Z12	X13	Y13	Z13	X14	Y14	Z14	X15	Y15	Z15	X16	Y16	Z16	X17	Y17	Z17	X18	Y18	Z18	X19	Y19	Z19	X20	Y20	Z20	X21	Y21	Z21	X22	Y22	Z22	X23	Y23	Z23	X24	Y24	Z24	X25	Y25	Z25	X26	Y26	Z26	X27	Y27	Z27	X28	Y28	Z28	X29	Y29	Z29	X30	Y30	Z30	X31	Y31	Z31	X32	Y32	Z32	X33	Y33	Z33	X34	Y34	Z34	X35	Y35	Z35	X36	Y36	Z36	X37	Y37	Z37	X38	Y38	Z38	X39	Y39	Z39	X40	Y40	Z40	X41	Y41	Z41	X42	Y42	Z42	X43	Y43	Z43	X44	Y44	Z44	X45	Y45	Z45	X46	Y46	Z46	X47	Y47	Z47	X48	Y48	Z48	X49	Y49	Z49	X50	Y50	Z50	X51	Y51	Z51	

177	1.760	-1048.21033	414.98764	1656.29871	-917.33710	405.12366	1642.49963	-1061.13977	284.57861	1598.67407	-932.38214	275.79181	1589.48364	-1001.28314	282.20212	1441.25452	-983.88177	240.10970	1114.63062	-999.56738	391.26300	1362.99011	-1002.94421	427.61395	1186.75745	-914.99316	206.68648	1273.93762	-1161.82495	333.88840	1393.64734	-1225.13293	290.16675	1194.93237	-1229.47986	259.12201	1086.51538	-1245.13965	249.44524	935.30426	-1199.94360	285.45819	812.48181	-1235.22327	223.19809	819.10388	-1231.42041	244.32182	730.17615	-840.04047	344.05145	1398.19019	-744.85529	344.54834	1202.20007	-725.44781	390.09229	1091.15613	-709.25977	466.81046	1001.29022	-744.99152	595.77448	927.56036	-705.76428	552.84113	894.64886	-704.98303	628.09436	857.74670	-1094.91162	417.18219	954.37622	-875.60907	413.21469	955.05695	-1072.51538	257.09961	978.57080	-903.28583	261.96451	984.41949	-1168.15527	405.72308	644.66101	-1140.51111	459.59650	493.11322	-1141.92126	500.31354	241.03983	-1107.81482	558.74689	75.86880	-1059.60205	527.68195	49.43731	-1107.58826	705.79657	86.23910	-833.86554	314.39920	625.15436	-854.88879	291.22464	499.90598	-862.21704	167.98584	257.85324	-912.63959	99.39957	84.48690	-955.67474	52.20392	69.48122	-922.50415	244.30763	30.09059	-997.07050	309.40744	1690.66150																																	 
178	1.770	-1049.41260	423.36902	1655.25427	-918.53632	413.56464	1641.53320	-1062.29077	293.03079	1597.57898	-933.55981	284.26404	1588.40967	-1002.51172	290.65100	1440.19458	-985.38892	248.68466	1113.47021	-1000.68750	399.80038	1361.92725	-1004.03973	436.25891	1185.77917	-916.34259	215.14435	1272.90503	-1163.04578	342.66650	1392.58533	-1226.14026	298.54535	1193.87659	-1230.34009	267.18546	1085.51636	-1245.85706	257.29044	934.29126	-1200.68604	293.18747	811.46252	-1235.78882	230.79109	818.15955	-1232.03333	251.69731	729.22369	-841.20880	352.46783	1397.09875	-746.06659	352.65637	1201.07751	-726.68823	397.93423	1089.94653	-710.63428	474.67993	1000.16077	-746.49481	603.66302	926.67120	-707.30035	560.81561	893.64423	-706.52087	636.13416	856.84735	-1096.13037	426.47180	953.60382	-876.75018	421.77414	954.18140	-1074.36914	266.26575	977.47522	-905.12305	270.51083	983.12909	-1168.86829	415.65622	643.83582	-1141.28369	469.47763	492.61069	-1142.87402	510.60675	240.25027	-1108.34741	568.98157	75.14727	-1060.13220	537.82269	48.42995	-1107.23157	715.83740	86.28260	-835.11951	322.77448	624.22510	-855.97961	299.49414	498.89124	-862.76453	172.66760	258.41708	-912.11438	100.52532	86.65962	-955.18054	53.03124	72.09902	-922.57983	244.55714	30.08771	-998.22791	317.77588	1689.60046																																	 
179	1.780	-1050.62244	431.84155	1654.36292	-919.80872	422.05948	1640.56848	-1063.53369	301.59369	1596.54407	-934.80713	292.74893	1587.46655	-1003.78339	299.19360	1439.14771	-987.04840	257.40793	1112.42371	-1001.87238	408.37497	1360.97375	-1005.23578	445.00128	1184.85730	-917.75336	223.63231	1271.82471	-1164.29321	351.40359	1391.55115	-1227.27649	307.13266	1192.87219	-1231.38635	275.67752	1084.54431	-1246.76270	265.48355	933.31348	-1201.54797	301.14194	810.37494	-1236.49695	238.86708	817.15253	-1232.83411	259.71811	728.26221	-842.45782	360.86923	1396.02087	-747.35681	360.77399	1199.96082	-728.02490	405.60538	1088.72205	-712.11597	482.24371	998.83124	-747.96771	611.35492	925.49298	-708.90521	568.34631	892.29388	-707.88483	643.92664	855.64117	-1097.48010	435.83691	952.79285	-877.86835	430.51837	953.28833	-1076.16235	275.62921	976.41132	-907.12177	279.61771	981.84863	-1169.59021	425.90353	643.15094	-1142.05322	479.57220	492.09225	-1143.95056	520.33484	239.37283	-1109.11670	577.48480	73.98271	-1061.14771	546.02539	47.12852	-1106.89636	724.21857	85.13349	-836.42664	331.35315	623.36243	-857.25873	307.80133	498.02542	-863.27515	177.49144	259.13306	-912.00439	101.89673	88.55916	-954.66309	54.03214	74.98685	-922.71533	244.78709	30.12187	-999.54437	326.22833	1688.55603																																	 
180	1.790	-1051.95483	440.33966	1653.35010	-921.10425	430.58066	1639.70276	-1064.81946	310.07706	1595.52942	-936.06982	301.24207	1586.48572	-1005.09619	307.73535	1438.11414	-988.66473	266.48544	1111.20862	-1003.14746	417.04803	1360.08630	-1006.50934	453.97232	1184.00879	-919.30035	232.29997	1270.68127	-1165.64075	360.20065	1390.70276	-1228.54858	316.06955	1191.92102	-1232.51001	284.52560	1083.56055	-1247.79883	274.24240	932.38135	-1202.57605	309.89523	809.46796	-1237.53503	247.39676	816.24377	-1233.84497	268.18979	727.31458	-843.75757	369.34378	1395.00598	-748.71747	368.75409	1198.88599	-729.41101	413.12912	1087.45215	-713.59991	489.52545	997.39581	-749.65826	618.31940	923.67151	-710.56683	575.41364	890.76788	-709.88672	650.58081	853.69727	-1098.86804	445.59579	952.04602	-879.13763	439.40796	952.37732	-1078.23462	283.94244	975.69550	-908.92572	288.69751	980.60620	-1170.42676	436.41727	642.51178	-1142.72424	489.80453	491.43381	-1145.34131	529.37366	238.41159	-1110.11597	584.54230	72.40636	-1062.59009	552.25366	45.58902	-1106.47864	731.02399	83.03712	-837.69965	340.09604	622.27216	-858.32202	316.89606	496.85083	-863.75946	182.35886	260.00275	-911.69269	103.34627	90.89402	-954.15765	55.15302	78.13740	-922.67102	244.47597	29.86227	-1000.83423	334.74432	1687.60181																																	 
181	1.800	-1053.26917	448.91278	1652.50635	-922.43597	439.11206	1638.74170	-1066.14087	318.57501	1594.62842	-937.41968	309.81393	1585.57666	-1006.54913	316.32568	1437.11304	-990.40637	275.75696	1110.08630	-1004.55042	425.77765	1359.26233	-1007.89331	463.08838	1183.24121	-920.94318	241.04640	1269.56067	-1167.05481	369.02213	1389.80859	-1229.92334	325.16907	1191.01440	-1233.81775	293.70169	1082.66602	-1249.02075	283.33289	931.42902	-1203.93958	319.30087	808.77228	-1238.70374	256.51431	815.37067	-1235.08594	277.30807	726.43872	-845.16321	377.82654	1394.00757	-750.19720	376.78925	1197.83545	-730.90045	420.56195	1086.17712	-715.20258	496.58673	995.76135	-751.30621	625.08508	921.59064	-712.17078	582.01202	888.67340	-711.34406	657.23938	851.53888	-1100.24524	455.39279	951.24652	-880.33081	448.51825	951.35602	-1079.98059	293.98474	974.72522	-910.70905	297.92865	979.47473	-1171.28015	447.07214	641.86487	-1143.86768	499.85590	490.60727	-1146.71643	537.37341	236.89043	-1111.38232	590.19196	70.43452	-1064.71118	556.86078	43.90343	-1105.90735	736.40710	80.05211	-838.95959	349.09790	621.29327	-859.52460	325.62369	495.91531	-864.24194	187.51649	261.16656	-911.42072	104.90971	93.51084	-953.61237	56.60320	81.54623	-922.75763	244.57677	29.78772	-1002.21838	343.29135	1686.73352																																	 
182	1.810	-1054.59265	457.48062	1651.75464	-923.81195	447.61038	1637.90039	-1067.55151	327.11630	1593.82312	-938.80164	318.35059	1584.75195	-1008.11206	324.99411	1436.12268	-992.25696	285.17856	1108.94409	-1005.98193	434.56802	1358.45300	-1009.30774	472.35983	1182.59900	-922.70496	249.90233	1268.33960	-1168.55359	377.91251	1389.02112	-1231.43555	334.52487	1190.18787	-1235.24902	303.11893	1081.79797	-1250.51721	292.95505	930.58160	-1205.17065	328.55240	807.68799	-1240.22461	266.09344	814.48816	-1236.46436	286.93027	725.63428	-846.64618	386.32339	1393.01721	-751.93774	384.03534	1196.65845	-732.48956	427.85654	1084.86951	-716.82202	503.42755	994.01178	-752.92694	631.81976	919.17145	-713.89685	588.25458	886.39703	-713.10553	663.34137	848.86646	-1101.65210	465.70401	950.52985	-881.86749	457.92328	950.54901	-1081.83887	304.04736	973.81738	-912.61237	307.40451	978.42035	-1172.19226	457.94666	641.17035	-1144.67151	509.89749	489.53387	-1148.28149	544.81897	235.46922	-1112.49731	594.55920	67.81291	-1066.45349	559.86804	42.21267	-1105.42883	740.56403	75.63113	-840.13281	358.30112	620.37854	-860.17603	335.08029	494.81528	-864.76947	192.83099	262.30179	-911.19287	106.67788	96.43526	-953.45898	58.02222	85.55760	-922.86963	244.64981	29.74968	-1003.56592	351.89224	1685.88940																																	 
